PathFileType	4	(X/Y/Z)	C:\Users\86182\Documents\cortex\Trimmed_M3_H5.trc
DataRate	CameraRate	NumFrames	NumMarkers	Units	OrigDataRate	OrigDataStartFrame	OrigNumFrames
100.00	100.00	       101	2	mm	100.00	1	       901
Frame#	Time	gripper			box			
		X1	Y1	Z1	X2	Y2	Z2	

1	0.000	268.20822	172.38490	192.13885	268.76505	169.49637	56.56052	
2	0.010	268.21234	172.38359	192.14046	268.76477	169.49704	56.56056	
3	0.020	268.21664	172.38210	192.14194	268.76498	169.49670	56.56068	
4	0.030	268.22028	172.38072	192.14297	268.76566	169.49542	56.56081	
5	0.040	268.22281	172.37964	192.14351	268.76651	169.49371	56.56091	
6	0.050	268.22409	172.37895	192.14352	268.76724	169.49219	56.56095	
7	0.060	268.22430	172.37863	192.14307	268.76773	169.49112	56.56094	
8	0.070	268.22379	172.37868	192.14235	268.76813	169.49026	56.56094	
9	0.080	268.22293	172.37920	192.14157	268.76862	169.48927	56.56098	
10	0.090	268.22198	172.38022	192.14088	268.76926	169.48801	56.56107	
11	0.100	268.22119	172.38141	192.14032	268.76996	169.48666	56.56121	
12	0.110	268.22064	172.38234	192.13986	268.77054	169.48560	56.56134	
13	0.120	268.22040	172.38286	192.13962	268.77081	169.48511	56.56143	
14	0.130	268.22025	172.38324	192.13966	268.77078	169.48515	56.56142	
15	0.140	268.21985	172.38399	192.14005	268.77060	169.48541	56.56131	
16	0.150	268.21899	172.38551	192.14076	268.77042	169.48553	56.56112	
17	0.160	268.21774	172.38785	192.14168	268.77039	169.48526	56.56086	
18	0.170	268.21625	172.39075	192.14267	268.77045	169.48470	56.56055	
19	0.180	268.21472	172.39365	192.14357	268.77042	169.48422	56.56016	
20	0.190	268.21338	172.39595	192.14423	268.77023	169.48413	56.55981	
21	0.200	268.21222	172.39726	192.14447	268.76999	169.48451	56.55967	
22	0.210	268.21097	172.39745	192.14415	268.76971	169.48538	56.55991	
23	0.220	268.20944	172.39665	192.14317	268.76953	169.48665	56.56051	
24	0.230	268.20764	172.39525	192.14168	268.76950	169.48802	56.56146	
25	0.240	268.20581	172.39381	192.13998	268.76981	169.48911	56.56277	
26	0.250	268.20428	172.39272	192.13843	268.77051	169.48976	56.56435	
27	0.260	268.20343	172.39203	192.13736	268.77142	169.49002	56.56602	
28	0.270	268.20349	172.39174	192.13692	268.77234	169.49007	56.56750	
29	0.280	268.20438	172.39178	192.13713	268.77298	169.48991	56.56842	
30	0.290	268.20593	172.39204	192.13795	268.77325	169.48953	56.56854	
31	0.300	268.20825	172.39218	192.13924	268.77313	169.48877	56.56779	
32	0.310	268.21136	172.39165	192.14072	268.77283	169.48763	56.56647	
33	0.320	268.21533	172.39009	192.14218	268.77243	169.48639	56.56497	
34	0.330	268.21982	172.38763	192.14346	268.77197	169.48544	56.56353	
35	0.340	268.22424	172.38486	192.14447	268.77136	169.48506	56.56228	
36	0.350	268.22787	172.38234	192.14510	268.77060	169.48532	56.56128	
37	0.360	268.23019	172.38052	192.14529	268.76974	169.48613	56.56056	
38	0.370	268.23108	172.37959	192.14511	268.76892	169.48732	56.56013	
39	0.380	268.23062	172.37958	192.14465	268.76816	169.48869	56.55989	
40	0.390	268.22906	172.38042	192.14407	268.76740	169.49017	56.55972	
41	0.400	268.22644	172.38206	192.14357	268.76675	169.49150	56.55956	
42	0.410	268.22278	172.38449	192.14313	268.76654	169.49213	56.55949	
43	0.420	268.21826	172.38728	192.14261	268.76706	169.49158	56.55961	
44	0.430	268.21341	172.38963	192.14182	268.76831	169.48984	56.55999	
45	0.440	268.20908	172.39072	192.14067	268.77008	169.48737	56.56061	
46	0.450	268.20602	172.39009	192.13922	268.77191	169.48486	56.56135	
47	0.460	268.20444	172.38800	192.13770	268.77341	169.48286	56.56213	
48	0.470	268.20401	172.38510	192.13622	268.77438	169.48160	56.56290	
49	0.480	268.20441	172.38219	192.13498	268.77493	169.48097	56.56359	
50	0.490	268.20560	172.37999	192.13432	268.77512	169.48077	56.56413	
51	0.500	268.20770	172.37901	192.13461	268.77493	169.48100	56.56436	
52	0.510	268.21091	172.37933	192.13599	268.77429	169.48174	56.56421	
53	0.520	268.21521	172.38060	192.13837	268.77332	169.48294	56.56373	
54	0.530	268.22034	172.38226	192.14143	268.77209	169.48450	56.56307	
55	0.540	268.22556	172.38383	192.14471	268.77078	169.48628	56.56236	
56	0.550	268.22983	172.38507	192.14760	268.76947	169.48814	56.56163	
57	0.560	268.23233	172.38605	192.14961	268.76822	169.48993	56.56094	
58	0.570	268.23279	172.38699	192.15057	268.76718	169.49144	56.56029	
59	0.580	268.23151	172.38800	192.15059	268.76639	169.49246	56.55970	
60	0.590	268.22900	172.38902	192.14984	268.76608	169.49271	56.55923	
61	0.600	268.22589	172.38977	192.14854	268.76642	169.49190	56.55898	
62	0.610	268.22278	172.38988	192.14684	268.76752	169.48993	56.55905	
63	0.620	268.21994	172.38924	192.14488	268.76923	169.48714	56.55956	
64	0.630	268.21750	172.38829	192.14288	268.77127	169.48407	56.56049	
65	0.640	268.21561	172.38774	192.14128	268.77328	169.48137	56.56176	
66	0.650	268.21466	172.38806	192.14052	268.77484	169.47960	56.56311	
67	0.660	268.21490	172.38922	192.14076	268.77560	169.47929	56.56429	
68	0.670	268.21600	172.39093	192.14174	268.77539	169.48058	56.56509	
69	0.680	268.21722	172.39296	192.14304	268.77429	169.48315	56.56535	
70	0.690	268.21829	172.39508	192.14441	268.77255	169.48639	56.56509	
71	0.700	268.21918	172.39685	192.14569	268.77063	169.48959	56.56443	
72	0.710	268.21997	172.39766	192.14671	268.76892	169.49213	56.56359	
73	0.720	268.22104	172.39691	192.14735	268.76764	169.49364	56.56271	
74	0.730	268.22256	172.39450	192.14761	268.76685	169.49426	56.56189	
75	0.740	268.22418	172.39104	192.14738	268.76642	169.49432	56.56123	
76	0.750	268.22507	172.38748	192.14659	268.76633	169.49390	56.56078	
77	0.760	268.22467	172.38477	192.14534	268.76672	169.49286	56.56062	
78	0.770	268.22305	172.38338	192.14395	268.76758	169.49118	56.56073	
79	0.780	268.22104	172.38327	192.14279	268.76868	169.48915	56.56101	
80	0.790	268.21942	172.38397	192.14209	268.76987	169.48711	56.56138	
81	0.800	268.21863	172.38483	192.14182	268.77109	169.48503	56.56181	
82	0.810	268.21872	172.38539	192.14183	268.77243	169.48280	56.56228	
83	0.820	268.21954	172.38564	192.14203	268.77368	169.48068	56.56274	
84	0.830	268.22089	172.38571	192.14236	268.77454	169.47925	56.56305	
85	0.840	268.22244	172.38573	192.14279	268.77472	169.47897	56.56310	
86	0.850	268.22388	172.38576	192.14322	268.77414	169.47990	56.56287	
87	0.860	268.22476	172.38589	192.14354	268.77298	169.48180	56.56240	
88	0.870	268.22488	172.38623	192.14375	268.77148	169.48418	56.56180	
89	0.880	268.22427	172.38675	192.14386	268.76996	169.48662	56.56115	
90	0.890	268.22324	172.38731	192.14392	268.76852	169.48886	56.56054	
91	0.900	268.22171	172.38785	192.14380	268.76740	169.49069	56.56007	
92	0.910	268.21939	172.38837	192.14331	268.76669	169.49187	56.55983	
93	0.920	268.21625	172.38870	192.14233	268.76651	169.49239	56.55991	
94	0.930	268.21280	172.38860	192.14098	268.76675	169.49239	56.56030	
95	0.940	268.20975	172.38803	192.13956	268.76733	169.49200	56.56097	
96	0.950	268.20752	172.38728	192.13837	268.76825	169.49136	56.56192	
97	0.960	268.20612	172.38678	192.13763	268.76932	169.49062	56.56308	
98	0.970	268.20551	172.38680	192.13747	268.77039	169.48996	56.56432	
99	0.980	268.20584	172.38718	192.13791	268.77130	169.48947	56.56538	
100	0.990	268.20728	172.38744	192.13878	268.77182	169.48914	56.56598	
101	1.000	268.20975	172.38708	192.13985	268.77191	169.48885	56.56591	
